<?xml version="1.0" standalone="no"?>
<!DOCTYPE svg PUBLIC "-//W3C//DTD SVG 20010904//EN"
 "http://www.w3.org/TR/2001/REC-SVG-20010904/DTD/svg10.dtd">
<svg version="1.0" xmlns="http://www.w3.org/2000/svg"
 width="223.000000pt" height="223.000000pt" viewBox="0 0 223.000000 223.000000"
 preserveAspectRatio="xMidYMid meet">
<metadata>
Created by potrace 1.11, written by Peter Selinger 2001-2013
</metadata>
<g transform="translate(0.000000,223.000000) scale(0.100000,-0.100000)"
fill="#000000" stroke="none">
<path d="M925 2091 c-271 -58 -474 -190 -627 -406 -324 -458 -206 -1091 261
-1403 179 -120 363 -173 581 -167 306 8 588 152 772 394 90 119 167 301 193
456 20 123 2 325 -41 460 -30 93 -129 272 -179 321 -6 7 -22 25 -36 40 -37 45
-137 128 -207 172 -79 51 -189 97 -295 124 -112 28 -311 32 -422 9z m388 -66
c149 -34 282 -99 390 -188 74 -61 70 -57 132 -132 59 -71 63 -77 114 -175 41
-80 78 -187 89 -260 15 -95 5 -311 -17 -393 -98 -367 -397 -635 -770 -691
-359 -53 -711 102 -914 404 -315 467 -147 1103 359 1358 181 91 425 122 617
77z"/>
<path d="M995 1989 c-315 -53 -585 -287 -690 -597 -34 -100 -40 -147 -39 -287
0 -135 5 -169 40 -275 205 -617 996 -809 1461 -354 190 186 276 403 268 673
-15 476 -411 855 -888 850 -56 -1 -124 -5 -152 -10z m295 -49 c16 -5 4 -7 -35
-5 -281 11 -532 -119 -686 -353 -84 -127 -122 -262 -121 -427 2 -339 238 -642
572 -732 102 -28 312 -25 410 6 303 94 505 334 550 654 8 58 9 57 4 -23 -21
-389 -313 -709 -709 -777 -46 -8 -194 -7 -254 1 -321 45 -588 284 -682 611
-27 93 -34 284 -14 379 69 327 311 578 631 655 82 20 283 26 334 11z"/>
</g>
</svg>
